<?xml version="1.0" encoding="iso-8859-1"?>
<!-- Generator: Adobe Illustrator 19.0.0, SVG Export Plug-In . SVG Version: 6.00 Build 0)  -->
<svg version="1.1" id="Capa_1" xmlns="http://www.w3.org/2000/svg" xmlns:xlink="http://www.w3.org/1999/xlink" x="0px" y="0px"
	 viewBox="0 0 512 512" style="enable-background:new 0 0 512 512;" xml:space="preserve">
<g>
	<g>
		<path d="M220.782,281.011c-15.481,0-24.723,10.038-24.723,26.852v51.278c0,16.814,9.243,26.852,24.723,26.852
			c15.601,0,24.917-10.038,24.917-26.852v-51.278C245.698,291.049,236.384,281.011,220.782,281.011z M230.697,359.141
			c0,9.868-3.794,11.851-9.916,11.851c-4.919,0-9.723-0.915-9.723-11.851v-51.278c0-10.936,4.803-11.851,9.723-11.851
			c6.121,0,9.916,1.982,9.916,11.851V359.141z"/>
	</g>
</g>
<g>
	<g>
		<path d="M307.772,256.771l-25.477,15.439c-5.592,3.356-8.91,9.023-9.222,15.658c-6.657-21.323-24.907-33.175-52.292-33.175
			c-31.039,0-50.29,15.343-54.169,42.51c-2.779-27.65-28.26-42.51-52.325-42.51c-24.836,0-51.233,15.65-51.233,44.655
			c0,14.727,7.671,23.173,21.046,23.173c15.178,0,23.367-9.548,23.367-18.53c0-4.329,1.173-7.012,7.013-7.012
			c5.956,0,7.206,3.393,7.206,6.238c0,18.466-60.956,37.77-60.956,72.371v18.771c0,10.956,11.998,16.79,20.659,16.79h68.889
			c8.996,0,16.595-9.55,16.595-20.853c0-11.285-7.444-20.466-16.595-20.466h-38.337c15.14-12.572,47.8-27.547,53.929-57.596v46.906
			c0,33.79,20.014,53.169,54.91,53.169c35.02,0,55.103-19.379,55.103-53.169c0-55.663,0.179-54.56-0.536-60.479
			c3.389,6.687,10.148,10.905,17.624,9.445v86.252c0.001,22.426,45.189,22.456,45.189,0.003V271.29
			C338.162,257.031,318.217,250.296,307.772,256.771z M92.08,377.332c0,4.142,3.357,7.5,7.5,7.5h50.325
			c0.666,0.528,1.968,2.561,1.968,5.465c0,3.03-1.359,5.227-2.081,5.852H81.391c-2.195,0-4.902-1.295-5.658-2.19v-18.37
			c0-25.393,60.956-42.417,60.956-72.371c0-27.725-44.222-29.561-44.222,0.773c0,0.972-2.572,3.529-8.367,3.529
			c-3.51,0-6.045,0-6.045-8.172c0-39.412,73.819-40.281,73.819,2.902C151.874,341.335,92.08,349.613,92.08,377.332z
			 M260.885,359.141c0,25.326-13.493,38.168-40.102,38.168c-26.482,0-39.909-12.842-39.909-38.168v-51.278
			c0-25.326,13.428-38.168,39.909-38.168c26.61,0,40.102,12.842,40.102,38.168V359.141z M323.162,394.189
			c-2.415,2.575-12.773,2.573-15.186,0v-98.325c0-5.887-6.484-9.461-11.457-6.372c-0.4,0.248-6.047,3.826-6.494,3.903
			c-1.131,0-3.857-6.008,0.017-8.339c28.413-17.219,25.453-15.749,27.268-15.749c2.814,0,5.331,1.357,5.852,2.138V394.189z"/>
	</g>
</g>
<g>
	<g>
		<path d="M394.358,278.882c-13.299,0-21.239,8.085-21.239,21.626c-0.001,13.621,7.74,21.433,21.239,21.433
			c13.498,0,21.239-7.813,21.239-21.433C415.597,286.967,407.657,278.882,394.358,278.882z M394.358,306.941
			c-4.909,0-6.238-0.801-6.238-6.432c-0.001-5.667,1.557-6.625,6.238-6.625s6.238,0.957,6.238,6.625
			C400.596,306.14,399.267,306.941,394.358,306.941z"/>
	</g>
</g>
<g>
	<g>
		<path d="M433.169,325.853c18.456-17.112,20.915-71.16-38.812-71.16c-14.709,0-26.551,3.236-35.197,9.618
			c-20.08,14.82-19.1,47.157-3.638,61.521c-10.587,8.048-16.267,20.7-16.267,36.794v2.322c0,30.1,20.084,47.362,55.103,47.362
			c34.897,0,54.91-17.263,54.91-47.362C449.268,349.457,445.803,335.543,433.169,325.853z M394.358,397.309
			c-26.61,0-40.102-10.888-40.102-32.361v-2.323c0-15.19,6.356-25.038,18.894-29.273c6.773-2.288,6.783-11.913,0.008-14.209
			c-9.333-3.165-14.065-10.737-14.065-22.504c0-17.879,11.865-26.945,35.265-26.945c23.399,0,35.265,9.066,35.265,26.945
			c0,11.768-4.732,19.339-14.065,22.504c-6.772,2.295-6.769,11.921,0.009,14.209c14.989,5.063,18.7,16.893,18.7,31.596
			C434.267,386.422,420.84,397.309,394.358,397.309z"/>
	</g>
</g>
<g>
	<g>
		<path d="M394.358,331.129c-15.602,0-24.915,9.677-24.915,25.885v4.256c-0.001,16.813,9.314,26.852,24.915,26.852
			c15.48,0,24.724-10.038,24.724-26.852v-4.256C419.082,340.806,409.839,331.129,394.358,331.129z M404.081,361.27
			c0,10.935-5.019,11.851-9.723,11.851c-5.951,0-9.915-2.015-9.915-11.851c-0.001-9.137-0.27-15.14,9.915-15.14
			C404.339,346.13,404.081,352.13,404.081,361.27z"/>
	</g>
</g>
<g>
	<g>
		<path d="M488.649,316.668c4.143,0,7.5-3.358,7.5-7.5c0-7.008,0-222.165,0-236.377c0-11.738-9.55-21.287-21.286-21.287h-60.276
			V29.776c0-13.64-11.097-24.735-24.734-24.735c-13.64,0-24.735,11.097-24.735,24.735v21.726h-87.375V24.734
			C277.74,11.096,266.645,0,253.007,0c-13.638,0-24.733,11.096-24.733,24.734v26.768h-87.377V27.981
			c0-13.639-11.097-24.734-24.734-24.734S91.426,14.342,91.426,27.981v23.521H37.138c-11.738,0-21.287,9.55-21.287,21.287
			c0,12.722,0,410.543,0,417.922c0,11.739,9.55,21.289,21.287,21.289h437.724c11.737,0,21.286-9.55,21.286-21.288V344.168
			c0-4.142-3.357-7.5-7.5-7.5c-4.142,0-7.5,3.358-7.5,7.5v146.543c0,3.467-2.819,6.287-6.285,6.287H37.138
			c-3.466,0-6.286-2.82-6.286-6.287V179.766h450.296v129.402C481.148,313.309,484.506,316.668,488.649,316.668z M380.116,29.776
			c0-5.368,4.367-9.735,9.735-9.735c5.367,0,9.734,4.367,9.734,9.735c0,11.744,0,43.437,0,55.149c0,5.364-4.365,9.733-9.734,9.733
			c-5.367,0-9.735-4.366-9.735-9.733C380.116,73.208,380.116,41.509,380.116,29.776z M243.273,24.734
			c0-5.367,4.366-9.734,9.733-9.734c5.366,0,9.733,4.366,9.733,9.734c0,5.927,0,48.931,0,55.149c0,5.367-4.366,9.734-9.733,9.734
			c-5.366,0-9.733-4.366-9.733-9.734C243.273,73.666,243.273,30.663,243.273,24.734z M106.427,27.981
			c0-5.367,4.366-9.734,9.733-9.734c5.367,0,9.734,4.366,9.734,9.734c0,9.473,0,43.211,0,55.149c0,5.367-4.366,9.734-9.734,9.734
			c-5.366,0-9.733-4.366-9.733-9.734C106.427,72.76,106.427,39.789,106.427,27.981z M30.852,164.765v-17.414h204.654
			c4.143,0,7.5-3.358,7.5-7.5c0-4.142-3.357-7.5-7.5-7.5H30.852V72.789c0-3.466,2.82-6.286,6.286-6.286h54.288V83.13
			c0,13.639,11.096,24.734,24.733,24.734c13.638,0,24.734-11.096,24.734-24.734V66.503h87.377v13.381
			c0,13.639,11.096,24.734,24.733,24.734c13.638,0,24.733-11.096,24.733-24.734V66.503h87.375v18.422
			c0,13.639,11.097,24.733,24.735,24.733c13.639,0,24.734-11.096,24.734-24.733V66.503h60.276c3.466,0,6.285,2.82,6.285,6.286
			v59.561H270.508c-4.143,0-7.5,3.358-7.5,7.5c0,4.142,3.357,7.5,7.5,7.5h210.64v17.414H30.852z"/>
	</g>
</g>
<g>
</g>
<g>
</g>
<g>
</g>
<g>
</g>
<g>
</g>
<g>
</g>
<g>
</g>
<g>
</g>
<g>
</g>
<g>
</g>
<g>
</g>
<g>
</g>
<g>
</g>
<g>
</g>
<g>
</g>
</svg>
