<?xml version="1.0" encoding="iso-8859-1"?>
<!-- Generator: Adobe Illustrator 19.0.0, SVG Export Plug-In . SVG Version: 6.00 Build 0)  -->
<svg version="1.1" id="Capa_1" xmlns="http://www.w3.org/2000/svg" xmlns:xlink="http://www.w3.org/1999/xlink" x="0px" y="0px"
	 viewBox="0 0 496 496" style="enable-background:new 0 0 496 496;" xml:space="preserve">
<path style="fill:#92E0C0;" d="M8,40v416l0,0c0,17.672,14.328,32,32,32h320v-64V72L8,40z"/>
<g>
	<path style="fill:#ECECEC;" d="M8,128h64c8.84,0,16,7.16,16,16l0,0c0,8.84-7.16,16-16,16H8V128z"/>
	<path style="fill:#ECECEC;" d="M8,216h64c8.84,0,16,7.16,16,16l0,0c0,8.84-7.16,16-16,16H8V216z"/>
	<path style="fill:#ECECEC;" d="M8,304h64c8.84,0,16,7.16,16,16l0,0c0,8.84-7.16,16-16,16H8V304z"/>
	<path style="fill:#ECECEC;" d="M8,392h64c8.84,0,16,7.16,16,16l0,0c0,8.84-7.16,16-16,16H8V392z"/>
	<rect x="120" y="112" style="fill:#ECECEC;" width="176" height="128"/>
</g>
<rect x="376" y="424" style="fill:#FEA82F;" width="32" height="64"/>
<rect x="192" y="424" style="fill:#FCD770;" width="184" height="64"/>
<path style="fill:#FFEAA7;" d="M360,8L360,8c-17.672,0-32,14.328-32,32l0,0c0,17.672,14.328,32,32,32l0,0H40
	C22.328,72,8,57.672,8,40l0,0C8,22.328,22.328,8,40,8H360z"/>
<path style="fill:#ECECEC;" d="M456,488h-48v-64h48c17.672,0,32,14.328,32,32l0,0C488,473.672,473.672,488,456,488z"/>
<polygon style="fill:#8C95A4;" points="136,456 192,488 192,424 "/>
<path d="M304,104H112v144h192V104z M288,232H128V120h160V232z"/>
<rect x="112" y="272" width="192" height="16"/>
<rect x="112" y="304" width="192" height="16"/>
<rect x="112" y="368" width="192" height="16"/>
<rect x="216" y="336" width="88" height="16"/>
<rect x="112" y="336" width="88" height="16"/>
<path d="M456,416h-88v-16h-16v16H189.872l-70,40l42,24H72v-48c13.232,0,24-10.768,24-24s-10.768-24-24-24v-40
	c13.232,0,24-10.768,24-24s-10.768-24-24-24v-40c13.232,0,24-10.768,24-24s-10.768-24-24-24v-40c13.232,0,24-10.768,24-24
	s-10.768-24-24-24V80h280v304h16V64h-8c-13.232,0-24-10.768-24-24s10.768-24,24-24V0H40C17.944,0,0,17.944,0,40v416
	c0,22.056,17.944,40,40,40h149.872H192h264c22.056,0,40-17.944,40-40S478.056,416,456,416z M80,408c0,4.416-3.592,8-8,8H16v-16h56
	C76.408,400,80,403.584,80,408z M56,384H16v-40h40V384z M80,320c0,4.416-3.592,8-8,8H16v-16h56C76.408,312,80,315.584,80,320z
	 M56,296H16v-40h40V296z M80,232c0,4.416-3.592,8-8,8H16v-16h56C76.408,224,80,227.584,80,232z M56,208H16v-40h40V208z M80,144
	c0,4.416-3.592,8-8,8H16v-16h56C76.408,136,80,139.584,80,144z M56,120H16V71.792C22.704,76.872,30.96,80,40,80h16V120z M40,16
	h288.016C322.992,22.688,320,31,320,40s2.992,17.312,8.016,24H40c-13.232,0-24-10.768-24-24S26.768,16,40,16z M40,480
	c-13.232,0-24-10.768-24-24v-24h40v48H40z M200,432h168v48H200V432z M384,432h16v48h-16V432z M184,437.784v36.432L152.128,456
	L184,437.784z M456,480h-40v-48h40c13.232,0,24,10.768,24,24S469.232,480,456,480z"/>
<rect x="40" y="32" width="232" height="16"/>
<rect x="288" y="32" width="16" height="16"/>
<g>
</g>
<g>
</g>
<g>
</g>
<g>
</g>
<g>
</g>
<g>
</g>
<g>
</g>
<g>
</g>
<g>
</g>
<g>
</g>
<g>
</g>
<g>
</g>
<g>
</g>
<g>
</g>
<g>
</g>
</svg>
