<?xml version="1.0" encoding="iso-8859-1"?>
<!-- Generator: Adobe Illustrator 19.0.0, SVG Export Plug-In . SVG Version: 6.00 Build 0)  -->
<svg version="1.1" id="Capa_1" xmlns="http://www.w3.org/2000/svg" xmlns:xlink="http://www.w3.org/1999/xlink" x="0px" y="0px"
	 viewBox="0 0 512 512" style="enable-background:new 0 0 512 512;" xml:space="preserve">
<g>
	<rect x="30" y="341.999" style="fill:#69CBEF;" width="40" height="80"/>
	<rect x="110" y="321.999" style="fill:#69CBEF;" width="40" height="100"/>
	<rect x="190" y="281.999" style="fill:#69CBEF;" width="40" height="140"/>
</g>
<g>
	<rect x="270" y="231.999" style="fill:#00AEEF;" width="40" height="190"/>
	<rect x="350" y="151.999" style="fill:#00AEEF;" width="40" height="270"/>
	<rect x="430" y="81.995" style="fill:#00AEEF;" width="40" height="340"/>
</g>
<path d="M509.082,474.996l-20-20.062c-3.9-3.909-10.23-3.921-14.143-0.021c-3.911,3.899-3.921,10.231-0.021,14.143l2.931,2.939H460
	v-40h10c5.522,0,10-4.478,10-10v-340c0-5.522-4.478-10-10-10h-40c-5.522,0-10,4.478-10,10v340c0,5.522,4.478,10,10,10h10v40h-20v-10
	c0-5.522-4.478-10-10-10s-10,4.478-10,10v10h-20v-40h10c5.522,0,10-4.478,10-10v-270c0-5.522-4.478-10-10-10h-40
	c-5.522,0-10,4.478-10,10v270c0,5.522,4.478,10,10,10h10v40h-20v-10c0-5.522-4.478-10-10-10s-10,4.478-10,10v10h-20v-40h10
	c5.522,0,10-4.478,10-10v-190c0-5.522-4.478-10-10-10h-40c-5.522,0-10,4.478-10,10v190c0,5.522,4.478,10,10,10h10v40h-20v-10
	c0-5.522-4.478-10-10-10s-10,4.478-10,10v10h-20v-40h10c5.522,0,10-4.478,10-10v-140c0-5.522-4.478-10-10-10h-40
	c-5.522,0-10,4.478-10,10v140c0,5.522,4.478,10,10,10h10v40h-20v-10c0-5.522-4.478-10-10-10s-10,4.478-10,10v10h-20v-40h10
	c5.522,0,10-4.478,10-10v-100c0-5.522-4.478-10-10-10h-40c-5.522,0-10,4.478-10,10v100c0,5.522,4.478,10,10,10h10v40h-20v-10
	c0-5.522-4.478-10-10-10s-10,4.478-10,10v10H60v-40h10c5.522,0,10-4.478,10-10v-80c0-5.522-4.478-10-10-10H30
	c-5.522,0-10,4.478-10,10v80c0,5.522,4.478,10,10,10h10v40H20v-10c0-5.522-4.478-10-10-10s-10,4.478-10,10v40
	c0,5.522,4.478,10,10,10s10-4.478,10-10v-10h20v10c0,5.522,4.478,10,10,10s10-4.478,10-10v-10h20v10c0,5.522,4.478,10,10,10
	s10-4.478,10-10v-10h20v10c0,5.522,4.478,10,10,10s10-4.478,10-10v-10h20v10c0,5.522,4.478,10,10,10s10-4.478,10-10v-10h20v10
	c0,5.522,4.478,10,10,10s10-4.478,10-10v-10h20v10c0,5.522,4.478,10,10,10s10-4.478,10-10v-10h20v10c0,5.522,4.478,10,10,10
	s10-4.478,10-10v-10h20v10c0,5.522,4.478,10,10,10s10-4.478,10-10v-10h20v10c0,5.522,4.478,10,10,10s10-4.478,10-10v-10h20v10
	c0,5.522,4.478,10,10,10s10-4.478,10-10v-10h20v10c0,5.522,4.478,10,10,10s10-4.478,10-10v-10h17.972l-2.931,2.939
	c-3.899,3.912-3.89,10.243,0.021,14.143c1.952,1.945,4.506,2.918,7.061,2.918c2.564,0,5.129-0.98,7.082-2.939l19.877-19.938
	C512.973,485.213,512.973,478.899,509.082,474.996z M440,91.995h20v320h-20V91.995z M360,161.995h20v250h-20V161.995z M280,241.995
	h20v170h-20V241.995z M200,291.995h20v120h-20V291.995z M120,331.995h20v80h-20V331.995z M40,351.995h20v60H40V351.995z"/>
<path d="M65.31,300.025c1.16,0,2.3-0.2,3.4-0.601c30.42-11.01,62.04-25.76,93.96-43.86c31.81-18.029,63.939-39.38,95.49-63.449
	c31.87-24.311,63.17-51.431,93.04-80.58c24.653-24.072,48.363-49.613,70.755-76.13l0.564,7.28c0.2,2.521,1.33,4.86,3.19,6.58
	c1.859,1.7,4.26,2.641,6.77,2.641c0.261,0,0.53-0.011,0.79-0.03c5.49-0.42,9.62-5.24,9.19-10.74l-2.48-31.899
	c-0.189-2.53-1.33-4.87-3.189-6.58c-2.05-1.891-4.78-2.841-7.55-2.62l-31.91,2.479c-5.49,0.431-9.62,5.25-9.19,10.75
	c0.19,2.521,1.33,4.86,3.19,6.57c2.05,1.89,4.779,2.84,7.55,2.62l8.434-0.657C305.239,142.962,177.479,238.946,61.91,280.615
	c-5.181,1.87-7.88,7.62-6.011,12.8C57.33,297.375,61.109,300.025,65.31,300.025z"/>
<path d="M27.14,311.955c0.86,0,1.71-0.11,2.54-0.32c5.34-1.399,8.54-6.88,7.14-12.21c-1.149-4.399-5.13-7.47-9.67-7.47
	c-0.85,0-1.71,0.109-2.54,0.33c-2.579,0.67-4.75,2.319-6.1,4.62c-1.35,2.31-1.71,5-1.04,7.59
	C18.63,308.884,22.6,311.955,27.14,311.955z"/>
<g>
</g>
<g>
</g>
<g>
</g>
<g>
</g>
<g>
</g>
<g>
</g>
<g>
</g>
<g>
</g>
<g>
</g>
<g>
</g>
<g>
</g>
<g>
</g>
<g>
</g>
<g>
</g>
<g>
</g>
</svg>
