<?xml version="1.0" encoding="iso-8859-1"?>
<!-- Generator: Adobe Illustrator 19.0.0, SVG Export Plug-In . SVG Version: 6.00 Build 0)  -->
<svg version="1.1" id="Capa_1" xmlns="http://www.w3.org/2000/svg" xmlns:xlink="http://www.w3.org/1999/xlink" x="0px" y="0px"
	 viewBox="0 0 490.682 490.682" style="enable-background:new 0 0 490.682 490.682;" xml:space="preserve">
<path style="fill:#FFA000;" d="M468.808,148.364L309.874,32.716c-38.462-27.99-90.584-27.99-129.045,0L21.874,148.385
	c-11.147,8.25-18.694,20.472-21.077,34.133c-0.705,4.154,1.1,8.333,4.608,10.667l180.053,120.107
	c36.263,24.171,83.502,24.171,119.765,0l180.032-120.107c3.508-2.334,5.313-6.513,4.608-10.667
	C487.484,168.855,479.946,156.627,468.808,148.364z"/>
<path style="fill:#4CAF50;" d="M74.674,52.342h341.333c5.891,0,10.667,4.776,10.667,10.667v213.333
	c0,5.891-4.776,10.667-10.667,10.667H74.674c-5.891,0-10.667-4.776-10.667-10.667V63.009C64.008,57.118,68.783,52.342,74.674,52.342
	z"/>
<g>
	<path style="fill:#FAFAFA;" d="M245.341,223.009c-28.672,0-51.051-12.331-53.205-29.312c-0.788-5.838,3.306-11.209,9.144-11.997
		c5.838-0.788,11.209,3.306,11.997,9.144c0.007,0.055,0.014,0.11,0.021,0.165c0.405,3.093,12.096,10.667,32,10.667
		c21.739,0,32-8.533,32-10.667c0,0-0.363-6.699-31.147-10.496l-2.261-0.299c-15.573-1.899-51.925-6.4-51.925-32
		c0-18.24,22.933-32,53.333-32c28.672,0,51.051,12.331,53.205,29.291c0.742,5.844-3.393,11.183-9.237,11.925
		c-5.828,0.671-11.129-3.428-11.947-9.237c-0.405-3.093-12.096-10.667-32-10.667c-20.693,0-32,8-32,10.667
		c0,0,0.363,6.699,31.253,10.475l2.133,0.277c15.616,1.941,51.861,6.4,51.861,32C298.674,209.249,275.741,223.009,245.341,223.009z"
		/>
	<path style="fill:#FAFAFA;" d="M245.341,244.342c-5.891,0-10.667-4.776-10.667-10.667v-128c0-5.891,4.776-10.667,10.667-10.667
		s10.667,4.776,10.667,10.667v128C256.008,239.567,251.232,244.342,245.341,244.342z"/>
	<path style="fill:#FAFAFA;" d="M373.341,116.342h-42.667c-5.891,0-10.667-4.776-10.667-10.667c0-5.891,4.776-10.667,10.667-10.667
		h42.667c5.891,0,10.667,4.776,10.667,10.667C384.008,111.567,379.232,116.342,373.341,116.342z"/>
	<path style="fill:#FAFAFA;" d="M160.008,244.342h-42.667c-5.891,0-10.667-4.776-10.667-10.667c0-5.891,4.776-10.667,10.667-10.667
		h42.667c5.891,0,10.667,4.776,10.667,10.667C170.674,239.567,165.899,244.342,160.008,244.342z"/>
</g>
<path style="fill:#FFC107;" d="M489.842,182.326c-1.083-5.791-6.655-9.607-12.446-8.524c-1.415,0.265-2.762,0.813-3.96,1.612
	L293.426,295.5c-29.023,19.697-67.126,19.697-96.149,0L17.245,175.414c-4.9-3.27-11.523-1.948-14.793,2.952
	c-0.799,1.198-1.347,2.544-1.612,3.96c-0.568,3.182-0.847,6.41-0.832,9.643v233.6c-0.488,28.908,22.507,52.761,51.413,53.333h387.84
	c28.907-0.572,51.901-24.425,51.413-53.333v-233.6C490.689,188.736,490.41,185.509,489.842,182.326z"/>
<path d="M439.197,479.009H51.485c-28.927-0.549-51.953-24.405-51.477-53.333V191.969c-0.075-17.212,8.054-33.429,21.888-43.669
	l43.776-31.829c4.766-3.464,11.437-2.409,14.901,2.357c3.464,4.766,2.409,11.437-2.357,14.901L34.44,165.558
	c-8.322,6.216-13.187,16.024-13.099,26.411v233.707c-0.479,17.148,12.998,31.454,30.144,32h387.712
	c17.146-0.546,30.623-14.852,30.144-32V191.969c0.088-10.387-4.776-20.195-13.099-26.411l-43.349-31.509
	c-4.766-3.464-5.821-10.135-2.357-14.901c3.464-4.766,10.135-5.821,14.901-2.357l43.328,31.509
	c13.842,10.235,21.979,26.454,21.909,43.669v233.707C491.15,454.604,468.124,478.46,439.197,479.009z"/>
<path d="M157.405,73.612c-5.891-0.07-10.609-4.902-10.539-10.793c0.039-3.313,1.616-6.419,4.267-8.407l29.675-21.675
	c38.446-28.086,90.642-28.086,129.088,0l29.333,21.333c4.766,3.464,5.821,10.135,2.357,14.901
	c-3.464,4.766-10.135,5.821-14.901,2.357l-29.333-21.333c-30.983-22.601-73.017-22.601-104,0l-29.675,21.568
	C161.855,72.892,159.66,73.609,157.405,73.612z"/>
<path d="M245.341,331.425c-21.321-0.009-42.161-6.342-59.883-18.197L47.432,221.217c-4.901-3.27-6.224-9.893-2.955-14.795
	c3.27-4.901,9.893-6.224,14.795-2.955l138.048,92.011c29.054,19.419,66.946,19.419,96,0l138.048-92.011
	c4.901-3.27,11.525-1.947,14.795,2.955s1.947,11.525-2.955,14.795L305.16,313.228C287.455,325.069,266.64,331.401,245.341,331.425z"
	/>
<path d="M416.008,233.676c-5.891,0-10.667-4.776-10.667-10.667V73.676h-320v149.333c0,5.891-4.776,10.667-10.667,10.667
	c-5.891,0-10.667-4.776-10.667-10.667v-160c0-5.891,4.776-10.667,10.667-10.667h341.333c5.891,0,10.667,4.776,10.667,10.667v160
	C426.674,228.9,421.899,233.676,416.008,233.676z"/>
<path d="M245.341,223.009c-28.672,0-51.051-12.309-53.205-29.291c-0.748-5.844,3.383-11.188,9.227-11.936
	c5.844-0.748,11.188,3.383,11.936,9.227c0.405,3.115,12.096,10.667,32,10.667c20.693,0,32-8.021,32-10.667
	c0,0-0.363-6.699-31.168-10.475l-2.24-0.299c-15.573-1.92-51.925-6.4-51.925-32c0-18.24,22.933-32,53.333-32
	c28.672,0,51.051,12.309,53.205,29.269c0.748,5.844-3.383,11.188-9.227,11.936c-5.844,0.748-11.188-3.383-11.936-9.227
	c-0.405-3.115-12.096-10.667-32-10.667c-20.693,0-32,8.021-32,10.667c0,0,0.363,6.699,31.275,10.475l2.133,0.299
	c15.573,1.92,51.861,6.4,51.861,32C298.674,209.27,275.741,223.009,245.341,223.009z"/>
<path d="M245.341,244.342c-5.891,0-10.667-4.776-10.667-10.667v-128c0-5.891,4.776-10.667,10.667-10.667s10.667,4.776,10.667,10.667
	v128C256.008,239.567,251.232,244.342,245.341,244.342z"/>
<path d="M330.674,287.009H149.341c-5.891,0-10.667-4.776-10.667-10.667s4.776-10.667,10.667-10.667h181.333
	c5.891,0,10.667,4.776,10.667,10.667S336.565,287.009,330.674,287.009z"/>
<path d="M373.341,116.342h-42.667c-5.891,0-10.667-4.776-10.667-10.667c0-5.891,4.776-10.667,10.667-10.667h42.667
	c5.891,0,10.667,4.776,10.667,10.667C384.008,111.567,379.232,116.342,373.341,116.342z"/>
<path d="M160.008,244.342h-42.667c-5.891,0-10.667-4.776-10.667-10.667c0-5.891,4.776-10.667,10.667-10.667h42.667
	c5.891,0,10.667,4.776,10.667,10.667C170.674,239.567,165.899,244.342,160.008,244.342z"/>
<g>
</g>
<g>
</g>
<g>
</g>
<g>
</g>
<g>
</g>
<g>
</g>
<g>
</g>
<g>
</g>
<g>
</g>
<g>
</g>
<g>
</g>
<g>
</g>
<g>
</g>
<g>
</g>
<g>
</g>
</svg>
