<?xml version="1.0" encoding="iso-8859-1"?>
<!-- Generator: Adobe Illustrator 19.0.0, SVG Export Plug-In . SVG Version: 6.00 Build 0)  -->
<svg xmlns="http://www.w3.org/2000/svg" xmlns:xlink="http://www.w3.org/1999/xlink" version="1.1" id="Capa_1" x="0px" y="0px" viewBox="0 0 512 512" style="enable-background:new 0 0 512 512;" xml:space="preserve" width="512px" height="512px">
<g>
	<g>
		<path d="M192.677,437.977h-83.338c-5.523,0-10.001,4.477-10.001,10.001s4.477,10.001,10.001,10.001h83.338    c5.523,0,10.001-4.477,10.001-10.001S198.2,437.977,192.677,437.977z" fill="#1f7b76"/>
	</g>
</g>
<g>
	<g>
		<path d="M237.753,440.907c-1.86-1.86-4.44-2.93-7.07-2.93s-5.21,1.07-7.08,2.93c-1.86,1.86-2.92,4.44-2.92,7.07    c0,2.63,1.06,5.21,2.92,7.07c1.87,1.86,4.44,2.93,7.08,2.93c2.63,0,5.21-1.07,7.07-2.93s2.93-4.44,2.93-7.07    C240.683,445.348,239.613,442.767,237.753,440.907z" fill="#1f7b76"/>
	</g>
</g>
<g>
	<g>
		<path d="M310.017,100.019c16.543,0,30.002-13.459,30.002-30.002V30.015c0-16.543-13.459-30.002-30.002-30.002H30.002    C13.459,0.013,0,13.472,0,30.015v40.002c0,16.543,13.459,30.002,30.002,30.002h10.001v27.942H30.002    C13.459,127.96,0,141.419,0,157.962V481.98c0,16.543,13.459,30.002,30.002,30.002h244.18c5.523,0,10.001-4.477,10.001-10.001    s-4.477-10.001-10.001-10.001H30.002c-5.514,0-10.001-4.486-10.001-10.001V157.962c0-5.514,4.486-10.001,10.001-10.001h280.015    c5.514,0,10.001,4.486,10.001,10.001V311.97c0,5.523,4.477,10.001,10.001,10.001s10.001-4.477,10.001-10.001V157.962    c0-16.543-13.459-30.002-30.002-30.002h-10.001v-27.942H310.017z M280.015,127.96H60.003v-27.942h220.012V127.96z M276.015,79.926    v-29.91c0-5.523-4.477-10.001-10.001-10.001c-5.523,0-10,4.477-10,10.001v29.91h-44.002v-29.91    c0-5.523-4.477-10.001-10.001-10.001s-10.001,4.477-10.001,10.001v29.91h-44.002v-29.91c0-5.523-4.477-10.001-10.001-10.001    c-5.523,0-10.001,4.477-10.001,10.001v29.91H84.005v-29.91c0-5.523-4.477-10.001-10.001-10.001    c-5.523,0-10.001,4.477-10.001,10.001v29.91l-34.002,0.092c-5.514,0-10.001-4.486-10.001-10.001V30.015    c0-5.514,4.486-10.001,10.001-10.001h280.015c5.514,0,10.001,4.486,10.001,10.001v40.002c0,5.514-4.486,10.001-10.001,10.001    L276.015,79.926z" fill="#1f7b76"/>
	</g>
</g>
<g>
	<g>
		<path d="M230.193,265.978h-30.002v-30.002c0-5.523-4.477-10.001-10.001-10.001h-40.002c-5.523,0-10.001,4.477-10.001,10.001    v30.002h-30.002c-5.523,0-10.001,4.477-10.001,10.001v40.002c0,5.523,4.477,10.001,10.001,10.001h30.002v30.002    c0,5.523,4.477,10.001,10.001,10.001h40.002c5.523,0,10.001-4.477,10.001-10.001v-30.002h30.002    c5.523,0,10.001-4.477,10.001-10.001v-40.002C240.193,270.455,235.716,265.978,230.193,265.978z M220.192,305.98H190.19    c-5.523,0-10,4.477-10,10.001v30.002h-20.001v-30.002c0-5.523-4.477-10.001-10.001-10.001h-30.002v-20.001h30.002    c5.523,0,10.001-4.477,10.001-10.001v-30.002h20.001v30.002c0,5.523,4.477,10.001,10,10.001h30.002V305.98z" fill="#1f7b76"/>
	</g>
</g>
<g>
	<g>
		<path d="M170.189,181.973c-62.863,0-114.006,51.143-114.006,114.006s51.143,114.006,114.006,114.006    s114.006-51.143,114.006-114.006S233.053,181.973,170.189,181.973z M170.189,389.985c-51.835,0-94.005-42.17-94.005-94.005    s42.17-94.005,94.005-94.005s94.005,42.17,94.005,94.005S222.024,389.985,170.189,389.985z" fill="#1f7b76"/>
	</g>
</g>
<g>
	<g>
		<path d="M493.869,406.141c-11.268-11.267-25.827-17.277-40.61-18.042c4.316-8.445,6.768-17.996,6.768-28.115    c0-34.19-27.815-62.004-62.004-62.004s-62.004,27.815-62.004,62.004c0,10.117,2.451,19.665,6.765,28.109    c-15.346,0.784-29.664,7.13-40.608,18.075c-24.175,24.175-24.175,63.513,0,87.688c12.088,12.088,27.966,18.131,43.843,18.131    c15.878,0,31.756-6.043,43.844-18.132c3.131-3.131,5.847-6.52,8.167-10.094c2.316,3.563,5.027,6.943,8.15,10.067    c12.088,12.088,27.966,18.131,43.844,18.131c15.878,0,31.756-6.043,43.843-18.131    C518.044,469.653,518.044,430.316,493.869,406.141z M304.018,450.011c0-11.22,4.369-21.768,12.301-29.7    c7.933-7.934,18.481-12.303,29.702-12.303c7.007,0,13.753,1.705,19.762,4.917c0.661,0.404,1.336,0.787,2.013,1.166l-57.702,57.702    C306.136,465.294,304.017,457.816,304.018,450.011z M375.72,479.713c-7.931,7.932-18.48,12.301-29.7,12.301    c-7.805,0-15.283-2.118-21.783-6.075l57.697-57.697C391.725,444.395,389.66,465.773,375.72,479.713z M388.021,400.774    c-3.434-0.842-6.704-2.104-9.751-3.734c-0.783-0.479-1.578-0.936-2.38-1.378c-11.918-7.42-19.871-20.635-19.871-35.678    c0-19.715,13.656-36.292,32.002-40.791V400.774z M408.022,319.194c18.347,4.498,32.003,21.075,32.003,40.79    c0,15.05-7.96,28.27-19.888,35.688c-0.803,0.441-1.598,0.899-2.384,1.379c-3.041,1.625-6.303,2.883-9.731,3.724V319.194z     M408.023,449.984c0-11.221,4.368-21.768,12.301-29.7c2.313-2.313,4.836-4.287,7.5-5.947c0.84-0.462,1.669-0.941,2.485-1.441    c6.142-3.26,12.928-4.895,19.715-4.895c7.555,0,15.107,2.028,21.772,6.068l-57.698,57.698    C410.141,465.267,408.023,457.789,408.023,449.984z M479.725,479.685c-7.931,7.932-18.48,12.301-29.7,12.301    c-7.805,0-15.283-2.118-21.783-6.075l57.697-57.697C495.731,444.368,493.666,465.745,479.725,479.685z" fill="#1f7b76"/>
	</g>
</g>
<g>
</g>
<g>
</g>
<g>
</g>
<g>
</g>
<g>
</g>
<g>
</g>
<g>
</g>
<g>
</g>
<g>
</g>
<g>
</g>
<g>
</g>
<g>
</g>
<g>
</g>
<g>
</g>
<g>
</g>
</svg>
